# xmcd
#
# Track frame offsets:
#	150
#	12576
#	25689
#	37654
#	49268
#	59198
#	69506
#	82817
#	94134
#	102490
#
# Disc length: 1535 seconds
#
# Revision: 0
# Processed by: cddbd v1.5.2PL0 Copyright (c) Steve Scherf et al.
# Submitted via: EasyCDDAExtractor 10.0.4.1
#
DISCID=7d05fd0a
DTITLE=Various Artist - 30 No 1 Country Hits
DYEAR=1950
DGENRE=Country
TTITLE0=Johnny Cash - I Walk The Line
TTITLE1=Ray Price - City Lights
TTITLE2=Jim Reeves - Mexican Joe
TTITLE3=Hank Williams  - Cawliga
TTITLE4=Eddie Arnold - I Wanna Play House With You
TTITLE5=Faron Young - Live Fast, Love Hard, Die Young
TTITLE6=Hank Thompson - The Wild Side Of Life
TTITLE7=Kitty Wells - It Wasn't God Who Made Honky Tonk Angels
TTITLE8=Johnny Cash - Guess Things Happen That Way
TTITLE9=Hank Snow - I'm Movin On
EXTD=
EXTT0=
EXTT1=
EXTT2=
EXTT3=
EXTT4=
EXTT5=
EXTT6=
EXTT7=
EXTT8=
EXTT9=
PLAYORDER=
